Coordinates
version=1
nRows=11
nColumns=40
inDegrees=yes

Units are S.I. units (second, meters, Newtons, ...)
If the header above contains a line with 'inDegrees', this indicates whether rotational values are in degrees (yes) or radians (no).

endheader
time	pelvis_tilt	pelvis_list	pelvis_rotation	pelvis_tx	pelvis_ty	pelvis_tz	hip_flexion_r	hip_adduction_r	hip_rotation_r	knee_angle_r	knee_angle_r_beta	ankle_angle_r	subtalar_angle_r	mtp_angle_r	hip_flexion_l	hip_adduction_l	hip_rotation_l	knee_angle_l	knee_angle_l_beta	ankle_angle_l	subtalar_angle_l	mtp_angle_l	lumbar_extension	lumbar_bending	lumbar_rotation	arm_flex_r	arm_add_r	arm_rot_r	elbow_flex_r	pro_sup_r	wrist_flex_r	wrist_dev_r	arm_flex_l	arm_add_l	arm_rot_l	elbow_flex_l	pro_sup_l	wrist_flex_l	wrist_dev_l
      0.29000000	     -4.07817252	    -12.66031117	     89.94279256	      0.17492821	      0.94340339	      1.88543750	     41.65687952	     -3.49414055	     -2.83032925	      0.48821511	      0.00852096	      1.26405480	      0.00000000	      0.00000000	     -8.99109398	      6.72670067	      5.59491343	      2.01952152	      0.03524730	     13.34923802	      0.00000000	      0.00000000	      3.77453156	     -6.19261853	     -4.55558415	      0.00000000	      0.00000000	      0.00000000	      0.00000000	      0.00000000	      0.00000000	      0.00000000	      0.00000000	      0.00000000	      0.00000000	      0.00000000	      0.00000000	      0.00000000	      0.00000000
      0.30000000	     -4.00289450	    -12.88462566	     89.94401831	      0.17616468	      0.94125553	      1.87224777	     41.96791973	     -3.29824057	     -2.68187469	      1.04758111	      0.01828374	      1.18615075	      0.00000000	      0.00000000	     -9.54562401	      6.53214183	      5.72788018	      2.07564908	      0.03622691	     13.21476312	      0.00000000	      0.00000000	      4.03004581	     -6.06448384	     -4.64868879	      0.00000000	      0.00000000	      0.00000000	      0.00000000	      0.00000000	      0.00000000	      0.00000000	      0.00000000	      0.00000000	      0.00000000	      0.00000000	      0.00000000	      0.00000000	      0.00000000
      0.31000000	     -3.86688009	    -13.06215273	     89.94543140	      0.17745859	      0.93931623	      1.85895555	     42.28402787	     -3.04733768	     -2.55656464	      1.93594823	      0.03378867	      0.98296835	      0.00000000	      0.00000000	    -10.03867176	      6.28263681	      5.84295514	      2.32721386	      0.04061754	     12.81330484	      0.00000000	      0.00000000	      4.22370243	     -5.87698285	     -4.65405628	      0.00000000	      0.00000000	      0.00000000	      0.00000000	      0.00000000	      0.00000000	      0.00000000	      0.00000000	      0.00000000	      0.00000000	      0.00000000	      0.00000000	      0.00000000	      0.00000000
      0.32000000	     -3.69559073	    -13.25677238	     89.94640126	      0.17883675	      0.93756667	      1.84547404	     42.53291584	     -2.74148497	     -2.21214392	      2.84932678	      0.04973013	      0.61155890	      0.00000000	      0.00000000	    -10.38510819	      5.99905790	      5.79984316	      2.81427435	      0.04911835	     12.44026975	      0.00000000	      0.00000000	      4.43368796	     -5.65455655	     -4.66694873	      0.00000000	      0.00000000	      0.00000000	      0.00000000	      0.00000000	      0.00000000	      0.00000000	      0.00000000	      0.00000000	      0.00000000	      0.00000000	      0.00000000	      0.00000000	      0.00000000
      0.33000000	     -3.46593762	    -13.44815753	     89.94694631	      0.18025800	      0.93608595	      1.83174579	     42.74895303	     -2.37781612	     -1.95193381	      3.87477237	      0.06762754	      0.11132028	      0.00000000	      0.00000000	    -10.68012135	      5.66389095	      5.76029458	      3.37404327	      0.05888816	     11.92197514	      0.00000000	      0.00000000	      4.66510885	     -5.35929080	     -4.70087413	      0.00000000	      0.00000000	      0.00000000	      0.00000000	      0.00000000	      0.00000000	      0.00000000	      0.00000000	      0.00000000	      0.00000000	      0.00000000	      0.00000000	      0.00000000	      0.00000000
      0.34000000	     -3.19129482	    -13.62709568	     89.94738623	      0.18174154	      0.93487253	      1.81783407	     42.92205503	     -1.96625406	     -1.71109881	      4.94759620	      0.08635184	     -0.50262890	      0.00000000	      0.00000000	    -10.89967283	      5.29198499	      5.72191127	      4.08328247	      0.07126672	     11.27478219	      0.00000000	      0.00000000	      4.87555763	     -5.01081246	     -4.72945141	      0.00000000	      0.00000000	      0.00000000	      0.00000000	      0.00000000	      0.00000000	      0.00000000	      0.00000000	      0.00000000	      0.00000000	      0.00000000	      0.00000000	      0.00000000	      0.00000000
      0.35000000	     -2.86070384	    -13.77998455	     89.94748557	      0.18324519	      0.93402931	      1.80377140	     43.03773194	     -1.50315386	     -1.50417866	      6.07290868	      0.10599225	     -1.24842153	     -0.00000000	      0.00000000	    -11.03182052	      4.87312373	      5.65805636	      4.94459445	      0.08629945	     10.47340879	      0.00000000	     -0.00000000	      5.07448852	     -4.59797069	     -4.76506651	     -0.00000000	      0.00000000	     -0.00000000	      0.00000000	      0.00000000	      0.00000000	     -0.00000000	      0.00000000	      0.00000000	      0.00000000	      0.00000000	      0.00000000	      0.00000000	     -0.00000000
      0.36000000	     -2.36291892	    -13.95079185	     89.94723442	      0.18487659	      0.93349203	      1.78943164	     43.12005220	     -0.90506835	     -1.88145607	      7.16641437	      0.12507753	     -2.70378778	      0.00000000	      0.00000000	    -11.03422608	      4.26225936	      4.96156795	      5.93466993	      0.10357953	      8.93191484	      0.00000000	      0.00000000	      5.32177420	     -3.99611662	     -4.82481770	      0.00000000	      0.00000000	      0.00000000	      0.00000000	      0.00000000	      0.00000000	      0.00000000	      0.00000000	      0.00000000	      0.00000000	      0.00000000	      0.00000000	      0.00000000	      0.00000000
      0.37000000	     -1.87809338	    -14.02361183	     89.94665024	      0.18646821	      0.93345165	      1.77506953	     43.07150439	     -0.30863330	     -1.84904888	      8.27075173	      0.14435185	     -3.83513522	      0.00000000	      0.00000000	    -10.95894139	      3.68562484	      4.52682542	      7.20940366	      0.12582783	      7.54158982	      0.00000000	      0.00000000	      5.43615933	     -3.39475345	     -4.87004000	      0.00000000	      0.00000000	      0.00000000	      0.00000000	      0.00000000	      0.00000000	      0.00000000	      0.00000000	      0.00000000	      0.00000000	      0.00000000	      0.00000000	      0.00000000	      0.00000000
      0.38000000	     -1.34702331	    -14.04624590	     89.94568968	      0.18809099	      0.93383061	      1.76062223	     42.94519343	      0.32223528	     -1.82996144	      9.38104224	      0.16373007	     -4.92739159	      0.00000000	      0.00000000	    -10.77503165	      3.06301541	      4.05401233	      8.71357090	      0.15208050	      5.92836380	      0.00000000	      0.00000000	      5.49269631	     -2.74631790	     -4.91511913	      0.00000000	      0.00000000	      0.00000000	      0.00000000	      0.00000000	      0.00000000	      0.00000000	      0.00000000	      0.00000000	      0.00000000	      0.00000000	      0.00000000	      0.00000000	      0.00000000
      0.39000000	     -0.77324542	    -14.00107237	     89.94437726	      0.18973641	      0.93464460	      1.74610776	     42.72445339	      0.98454717	     -1.82166886	     10.49559538	      0.18318270	     -5.94100295	      0.00000000	      0.00000000	    -10.49257071	      2.38833330	      3.52982545	     10.44986377	      0.18238453	      4.04901528	      0.00000000	      0.00000000	      5.47451705	     -2.05622604	     -4.95525106	      0.00000000	      0.00000000	      0.00000000	      0.00000000	      0.00000000	      0.00000000	      0.00000000	      0.00000000	      0.00000000	      0.00000000	      0.00000000	      0.00000000	      0.00000000	      0.00000000
